<svg width="84" height="48" viewBox="0 0 84 48" fill="none" xmlns="http://www.w3.org/2000/svg">
<path d="M0.82 22C0.74 22 0.7 21.95 0.7 21.85L0.76 1.24C0.76 1.16 0.8 1.12 0.88 1.12H4.54C4.62 1.12 4.69 1.16 4.75 1.24L7.48 5.2L10.21 1.24C10.27 1.16 10.34 1.12 10.42 1.12H14.11C14.19 1.12 14.23 1.16 14.23 1.24L14.29 21.85C14.29 21.95 14.25 22 14.17 22H10.78C10.7 22 10.66 21.95 10.66 21.85L10.63 6.55L7.48 11.11L4.36 6.55L4.33 21.85C4.33 21.95 4.29 22 4.21 22H0.82ZM15.7933 21.85L19.5133 1.24C19.5333 1.16 19.5833 1.12 19.6633 1.12H24.0133C24.0933 1.12 24.1433 1.16 24.1633 1.24L27.7333 21.85C27.7533 21.95 27.7133 22 27.6133 22H24.2833C24.2033 22 24.1533 21.95 24.1333 21.85L23.8033 19.66H19.7233L19.3933 21.85C19.3733 21.95 19.3233 22 19.2433 22H15.9133C15.8333 22 15.7933 21.95 15.7933 21.85ZM20.3233 16.45H23.2033L21.9733 8.02L21.7933 6.91L21.6733 8.02L20.3233 16.45ZM34.4615 22.3C33.3815 22.3 32.4015 22.03 31.5215 21.49C30.6415 20.95 29.9315 20.23 29.3915 19.33C28.8715 18.41 28.6115 17.39 28.6115 16.27V6.76C28.6115 5.68 28.8715 4.69 29.3915 3.79C29.9315 2.87 30.6415 2.14 31.5215 1.6C32.4215 1.06 33.4015 0.789999 34.4615 0.789999C35.5615 0.789999 36.5515 1.06 37.4315 1.6C38.3315 2.12 39.0415 2.83 39.5615 3.73C40.0815 4.63 40.3415 5.64 40.3415 6.76V8.14C40.3415 8.22 40.2915 8.26 40.1915 8.26H36.8315C36.7515 8.26 36.7115 8.22 36.7115 8.14V7C36.7115 6.24 36.4915 5.61 36.0515 5.11C35.6315 4.61 35.1015 4.36 34.4615 4.36C33.8815 4.36 33.3615 4.6 32.9015 5.08C32.4615 5.56 32.2415 6.12 32.2415 6.76V16.27C32.2415 16.93 32.4615 17.5 32.9015 17.98C33.3415 18.44 33.8615 18.67 34.4615 18.67C35.1015 18.67 35.6315 18.44 36.0515 17.98C36.4915 17.52 36.7115 16.95 36.7115 16.27V14.8H34.6115C34.5115 14.8 34.4615 14.75 34.4615 14.65V11.29C34.4615 11.19 34.5115 11.14 34.6115 11.14H40.2215C40.3015 11.14 40.3415 11.19 40.3415 11.29V16.27C40.3415 17.39 40.0715 18.41 39.5315 19.33C39.0115 20.23 38.3115 20.95 37.4315 21.49C36.5515 22.03 35.5615 22.3 34.4615 22.3ZM42.7473 22C42.5873 22 42.5073 21.93 42.5073 21.79L42.4773 1.36C42.4773 1.2 42.5573 1.12 42.7173 1.12H45.4173L50.4873 12.94L50.3373 1.36C50.3373 1.2 50.4273 1.12 50.6073 1.12H53.5773C53.6973 1.12 53.7573 1.2 53.7573 1.36L53.7873 21.82C53.7873 21.94 53.7373 22 53.6373 22H50.9973L45.8073 10.96L46.0173 21.76C46.0173 21.92 45.9273 22 45.7473 22H42.7473ZM61.9134 22.3C60.8534 22.3 59.8734 22.03 58.9734 21.49C58.0734 20.93 57.3534 20.19 56.8134 19.27C56.2934 18.35 56.0334 17.34 56.0334 16.24L56.0934 1.24C56.0934 1.16 56.1334 1.12 56.2134 1.12H59.5734C59.6534 1.12 59.6934 1.16 59.6934 1.24V16.24C59.6934 16.92 59.9034 17.5 60.3234 17.98C60.7634 18.44 61.2934 18.67 61.9134 18.67C62.5534 18.67 63.0834 18.44 63.5034 17.98C63.9434 17.5 64.1634 16.92 64.1634 16.24V1.24C64.1634 1.16 64.2034 1.12 64.2834 1.12H67.6434C67.7234 1.12 67.7634 1.16 67.7634 1.24L67.8234 16.24C67.8234 17.36 67.5534 18.38 67.0134 19.3C66.4934 20.22 65.7834 20.95 64.8834 21.49C64.0034 22.03 63.0134 22.3 61.9134 22.3ZM70.3122 22C70.2322 22 70.1922 21.95 70.1922 21.85L70.2522 1.24C70.2522 1.16 70.2922 1.12 70.3722 1.12H74.0322C74.1122 1.12 74.1822 1.16 74.2422 1.24L76.9722 5.2L79.7022 1.24C79.7622 1.16 79.8322 1.12 79.9122 1.12H83.6022C83.6822 1.12 83.7222 1.16 83.7222 1.24L83.7822 21.85C83.7822 21.95 83.7422 22 83.6622 22H80.2722C80.1922 22 80.1522 21.95 80.1522 21.85L80.1222 6.55L76.9722 11.11L73.8522 6.55L73.8222 21.85C73.8222 21.95 73.7822 22 73.7022 22H70.3122ZM19.6094 47.3C18.5294 47.3 17.5394 47.03 16.6394 46.49C15.7594 45.93 15.0494 45.2 14.5094 44.3C13.9694 43.38 13.6994 42.37 13.6994 41.27L13.7294 31.76C13.7294 30.66 13.9894 29.66 14.5094 28.76C15.0494 27.86 15.7694 27.14 16.6694 26.6C17.5694 26.06 18.5494 25.79 19.6094 25.79C20.6894 25.79 21.6694 26.06 22.5494 26.6C23.4294 27.14 24.1294 27.86 24.6494 28.76C25.1894 29.66 25.4594 30.66 25.4594 31.76L25.4894 41.27C25.4894 42.37 25.2194 43.38 24.6794 44.3C24.1594 45.2 23.4494 45.93 22.5494 46.49C21.6694 47.03 20.6894 47.3 19.6094 47.3ZM19.6094 43.67C20.2094 43.67 20.7294 43.43 21.1694 42.95C21.6294 42.45 21.8594 41.89 21.8594 41.27L21.8294 31.76C21.8294 31.1 21.6194 30.54 21.1994 30.08C20.7794 29.62 20.2494 29.39 19.6094 29.39C18.9894 29.39 18.4594 29.62 18.0194 30.08C17.5794 30.52 17.3594 31.08 17.3594 31.76V41.27C17.3594 41.93 17.5794 42.5 18.0194 42.98C18.4594 43.44 18.9894 43.67 19.6094 43.67ZM27.9203 47C27.8203 47 27.7703 46.95 27.7703 46.85L27.8303 26.24C27.8303 26.16 27.8703 26.12 27.9503 26.12H33.7103C35.5503 26.12 37.0003 26.68 38.0603 27.8C39.1403 28.92 39.6803 30.44 39.6803 32.36C39.6803 33.78 39.4003 35.01 38.8403 36.05C38.2803 37.09 37.5503 37.89 36.6503 38.45C35.7503 39.01 34.7703 39.29 33.7103 39.29H31.4303V46.85C31.4303 46.95 31.3803 47 31.2803 47H27.9203ZM31.4303 35.66H33.7103C34.3503 35.66 34.9003 35.36 35.3603 34.76C35.8403 34.14 36.0803 33.34 36.0803 32.36C36.0803 31.58 35.8703 30.94 35.4503 30.44C35.0303 29.94 34.4503 29.69 33.7103 29.69L31.4303 29.72V35.66ZM47.2356 47.3C46.1756 47.3 45.1956 47.03 44.2956 46.49C43.3956 45.93 42.6756 45.19 42.1356 44.27C41.6156 43.35 41.3556 42.34 41.3556 41.24L41.4156 26.24C41.4156 26.16 41.4556 26.12 41.5356 26.12H44.8956C44.9756 26.12 45.0156 26.16 45.0156 26.24V41.24C45.0156 41.92 45.2256 42.5 45.6456 42.98C46.0856 43.44 46.6156 43.67 47.2356 43.67C47.8756 43.67 48.4056 43.44 48.8256 42.98C49.2656 42.5 49.4856 41.92 49.4856 41.24V26.24C49.4856 26.16 49.5256 26.12 49.6056 26.12H52.9656C53.0456 26.12 53.0856 26.16 53.0856 26.24L53.1456 41.24C53.1456 42.36 52.8756 43.38 52.3356 44.3C51.8156 45.22 51.1056 45.95 50.2056 46.49C49.3256 47.03 48.3356 47.3 47.2356 47.3ZM60.6145 47.3C59.5345 47.3 58.5445 47.03 57.6445 46.49C56.7645 45.93 56.0545 45.2 55.5145 44.3C54.9945 43.38 54.7345 42.37 54.7345 41.27V39.89C54.7345 39.79 54.7845 39.74 54.8845 39.74H58.2445C58.3245 39.74 58.3645 39.79 58.3645 39.89V41.27C58.3645 41.93 58.5845 42.5 59.0245 42.98C59.4645 43.44 59.9945 43.67 60.6145 43.67C61.2345 43.67 61.7645 43.43 62.2045 42.95C62.6445 42.47 62.8645 41.91 62.8645 41.27C62.8645 40.53 62.3845 39.89 61.4245 39.35C61.1045 39.17 60.6045 38.89 59.9245 38.51C59.2445 38.13 58.6045 37.77 58.0045 37.43C56.9045 36.79 56.0845 35.99 55.5445 35.03C55.0245 34.05 54.7645 32.95 54.7645 31.73C54.7645 30.61 55.0345 29.61 55.5745 28.73C56.1145 27.83 56.8245 27.12 57.7045 26.6C58.6045 26.08 59.5745 25.82 60.6145 25.82C61.6745 25.82 62.6445 26.09 63.5245 26.63C64.4245 27.15 65.1345 27.86 65.6545 28.76C66.1945 29.64 66.4645 30.63 66.4645 31.73V34.19C66.4645 34.27 66.4245 34.31 66.3445 34.31H62.9845C62.9045 34.31 62.8645 34.27 62.8645 34.19L62.8345 31.73C62.8345 31.03 62.6145 30.46 62.1745 30.02C61.7345 29.58 61.2145 29.36 60.6145 29.36C59.9945 29.36 59.4645 29.6 59.0245 30.08C58.5845 30.54 58.3645 31.09 58.3645 31.73C58.3645 32.39 58.5045 32.94 58.7845 33.38C59.0645 33.82 59.5745 34.24 60.3145 34.64C60.4145 34.7 60.6045 34.81 60.8845 34.97C61.1845 35.11 61.5045 35.28 61.8445 35.48C62.1845 35.66 62.4845 35.82 62.7445 35.96C63.0245 36.1 63.1945 36.19 63.2545 36.23C64.2545 36.79 65.0445 37.48 65.6245 38.3C66.2045 39.1 66.4945 40.09 66.4945 41.27C66.4945 42.41 66.2245 43.44 65.6845 44.36C65.1645 45.26 64.4545 45.98 63.5545 46.52C62.6745 47.04 61.6945 47.3 60.6145 47.3Z" fill="black"/>
</svg>
